<svg width="486" height="300" viewBox="0 0 486 300" fill="none" xmlns="http://www.w3.org/2000/svg">
<g clip-path="url(#clip0)">
<path opacity="0.1" d="M486 192.683C486.008 200.811 485.028 208.91 483.082 216.8C482.428 219.458 481.667 222.062 480.8 224.61C479.74 227.755 478.512 230.84 477.12 233.852C476.418 235.376 475.677 236.87 474.896 238.333C474.909 246.668 473.199 254.915 469.874 262.553C463.864 276.258 453.148 287.338 439.678 293.776C431.256 297.809 422.052 299.929 412.721 299.988H92.2587C78.0007 300.018 63.9889 296.259 51.6479 289.093L51.4581 288.985C49.7004 287.953 47.9866 286.859 46.3168 285.705C42.5599 283.101 39.0303 280.181 35.7659 276.976C31.3477 272.643 27.4545 267.802 24.167 262.553C16.4459 250.25 12.3557 236.003 12.37 221.463C4.55074 207.694 -0.00878906 191.2 -0.00878906 173.477C-0.00878906 151.116 7.23694 130.718 19.1412 115.276C21.623 112.05 24.3416 109.014 27.2741 106.195C30.1676 103.405 33.2776 100.85 36.5747 98.5548C39.2126 96.7165 41.9696 95.0564 44.8272 93.5856C46.0197 92.9769 47.2163 92.4013 48.4336 91.8671C49.5023 91.3909 50.5834 90.9479 51.6768 90.5296C52.989 90.0299 54.3177 89.5703 55.6628 89.1507C57.008 88.7311 58.3353 88.3639 59.6447 88.0492C61.5703 87.5771 63.5289 87.1934 65.5205 86.898C67.171 86.6537 68.8215 86.4839 70.472 86.3555C71.7841 86.2561 73.1087 86.2023 74.4415 86.1858H75.1636C76.6325 86.1858 78.0932 86.2437 79.5415 86.3431C79.6942 86.0367 79.8592 85.7261 80.0119 85.4238C80.5896 84.3182 81.1879 83.2167 81.7903 82.14C81.789 82.1304 81.789 82.1207 81.7903 82.111C81.8935 81.9206 81.9967 81.7342 82.1039 81.552C82.5908 80.67 83.0984 79.7962 83.6183 78.9308C83.8576 78.5167 84.0928 78.1274 84.3362 77.7382C84.3877 77.6415 84.4442 77.5475 84.5054 77.4566C84.753 77.0425 85.0047 76.6284 85.2605 76.2143C86.5342 74.1714 87.8587 72.1645 89.2341 70.1934L89.5849 69.6882C89.7994 69.3817 89.9975 69.0836 90.2368 68.7772C90.8062 67.978 91.3922 67.1746 91.9822 66.3878C92.3948 65.8247 92.8075 65.2656 93.2531 64.7314C94.3259 63.3511 95.4263 61.9708 96.5541 60.5905C97.682 59.2102 98.8538 57.8478 100.07 56.5034C100.235 56.317 100.4 56.1348 100.573 55.9526L102.335 54.0229C102.422 53.9318 102.496 53.849 102.578 53.7662C102.789 53.5384 102.991 53.3107 103.218 53.0912C104.163 52.085 105.133 51.0994 106.106 50.118C111.062 45.1644 116.342 40.548 121.91 36.2996C122.129 36.1257 122.352 35.9601 122.57 35.7944C123.618 35.0035 124.683 34.2209 125.747 33.4506C131.603 29.2349 137.724 25.4035 144.072 21.9802C144.51 21.7276 144.955 21.4916 145.405 21.2597C151.096 18.2381 156.949 15.534 162.938 13.16C166.201 11.8638 169.54 10.6464 172.898 9.53247C175.135 8.79538 177.379 8.09556 179.653 7.43715C183.207 6.41019 186.786 5.48952 190.39 4.67513C201.006 2.28449 211.807 0.807707 222.673 0.260865C225.974 0.0924659 229.313 0.00550692 232.688 -1.43598e-05C248.974 -0.0216525 265.197 2.03778 280.965 6.1286C281.128 6.37585 281.351 6.57742 281.613 6.71434C281.875 6.85125 282.168 6.91901 282.463 6.91124H283.85C284.452 7.07688 285.05 7.24252 285.653 7.41644C289.017 8.38819 292.333 9.44965 295.601 10.6008L296.426 10.899C304.492 13.7773 312.34 17.2372 319.909 21.2514C326.732 24.8613 333.301 28.9344 339.571 33.4424C340.536 34.138 341.488 34.8392 342.426 35.546C343.565 34.8144 344.723 34.1132 345.9 33.4424C350.447 30.8437 355.276 28.7776 360.293 27.2848C370.781 24.17 381.878 23.7344 392.577 26.0176C406.297 28.937 418.717 36.1837 428.748 46.4905C432.832 50.7076 436.467 55.3401 439.595 60.313C439.822 60.6692 440.049 61.0294 440.268 61.3938C442.957 65.7952 445.267 70.418 447.175 75.2122C447.246 75.3903 447.316 75.5559 447.378 75.7298C449.139 80.2191 450.56 84.8356 451.628 89.5399C451.677 89.7801 451.735 90.0161 451.785 90.2563C452.783 94.809 453.462 99.4265 453.815 104.075C453.815 104.24 453.815 104.41 453.848 104.584C454.021 106.989 454.109 109.418 454.112 111.872C454.112 114.067 454.037 116.245 453.901 118.407C453.901 118.643 453.868 118.887 453.848 119.131C453.81 119.757 453.757 120.374 453.703 121.003C456.855 123.554 459.804 126.346 462.525 129.355C463.727 130.672 464.891 132.039 466.016 133.455C469.443 137.765 472.455 142.392 475.011 147.273C481.989 160.491 486 176.04 486 192.683Z" fill="#4A69BD"/>
<path opacity="0.1" d="M439.373 292.244C439.373 295.072 429.664 297.723 412.721 300H92.259C78.001 300.031 63.9892 296.271 51.6483 289.105L51.4585 288.998C56.3275 287.217 65.1164 285.556 77.0785 284.057L77.6149 283.991C82.9791 283.333 88.9745 282.707 95.527 282.115C95.6921 282.115 95.8613 282.09 96.0263 282.07C101.225 281.606 106.756 281.171 112.618 280.765C112.804 280.765 112.985 280.732 113.171 280.724C115.432 280.561 117.74 280.406 120.095 280.26L121.003 280.202C138.147 279.134 157.636 278.281 178.77 277.718H178.795C181.755 277.635 184.747 277.562 187.77 277.498C191.131 277.418 194.534 277.348 197.978 277.287C200.607 277.229 203.268 277.188 205.938 277.146H206C218.044 276.964 230.489 276.873 243.214 276.873C274.681 276.873 304.423 277.448 330.778 278.484H330.852C334.904 278.641 338.882 278.815 342.761 278.993L346.062 279.15C350.438 279.36 354.702 279.585 358.853 279.825C407.667 282.612 439.373 287.138 439.373 292.244Z" fill="#4A69BD"/>
<g opacity="0.2">
<path opacity="0.2" d="M280.702 274.972C280.688 275.419 280.637 275.863 280.549 276.301C277.677 275.843 274.789 275.429 271.884 275.059C271.884 274.943 271.884 274.823 271.884 274.703C271.911 273.461 272.267 272.249 272.915 271.191C273.765 269.841 275.057 268.997 276.48 269.042C277.904 269.088 279.138 270.011 279.901 271.407C280.479 272.503 280.755 273.733 280.702 274.972Z" fill="#3F3D56"/>
<path opacity="0.2" d="M280.939 267.896C281.039 264.693 279.145 262.035 276.708 261.957C274.271 261.88 272.214 264.413 272.113 267.616C272.012 270.818 273.906 273.477 276.343 273.554C278.78 273.632 280.838 271.098 280.939 267.896Z" fill="#3F3D56"/>
<path opacity="0.2" d="M281.164 260.806C281.265 257.604 279.371 254.945 276.933 254.868C274.496 254.791 272.439 257.324 272.338 260.526C272.237 263.729 274.131 266.388 276.568 266.465C279.005 266.542 281.063 264.009 281.164 260.806Z" fill="#3F3D56"/>
<path opacity="0.2" d="M281.385 253.717C281.486 250.514 279.592 247.856 277.155 247.778C274.717 247.701 272.66 250.235 272.559 253.437C272.458 256.64 274.352 259.298 276.789 259.376C279.226 259.453 281.284 256.919 281.385 253.717Z" fill="#3F3D56"/>
<path opacity="0.2" d="M281.606 246.627C281.706 243.425 279.812 240.766 277.375 240.689C274.938 240.612 272.881 243.145 272.78 246.347C272.679 249.55 274.573 252.209 277.01 252.286C279.447 252.363 281.505 249.83 281.606 246.627Z" fill="#3F3D56"/>
<path opacity="0.2" d="M262.175 197.437C261.594 196.647 261.07 195.817 260.607 194.952L272.267 193.408L259.715 193.105C258.595 190.439 258.029 187.571 258.051 184.678C258.073 181.784 258.683 178.925 259.843 176.276L276.398 185.573L261.234 173.63C262.764 171.147 264.787 169.008 267.178 167.345C269.569 165.682 272.275 164.531 275.129 163.965C277.983 163.4 280.922 163.43 283.763 164.055C286.605 164.681 289.287 165.887 291.643 167.6C293.999 169.312 295.978 171.494 297.456 174.008C298.934 176.522 299.879 179.315 300.233 182.213C300.587 185.111 300.342 188.05 299.513 190.848C298.685 193.647 297.29 196.243 295.416 198.476C296.32 199.704 297.087 201.028 297.706 202.423L282.402 209.793L298.63 204.895C299.652 208.279 299.817 211.865 299.109 215.33C298.402 218.794 296.844 222.026 294.578 224.734C296.934 227.942 298.343 231.751 298.644 235.725C298.945 239.699 298.125 243.677 296.278 247.206C294.432 250.734 291.633 253.67 288.203 255.677C284.772 257.685 280.848 258.683 276.878 258.557C272.909 258.431 269.055 257.187 265.757 254.967C262.459 252.747 259.851 249.64 258.229 246.002C256.608 242.364 256.04 238.341 256.589 234.394C257.139 230.447 258.784 226.735 261.337 223.682C258.522 219.848 257.073 215.176 257.223 210.416C257.372 205.656 259.112 201.085 262.162 197.437H262.175Z" fill="#4A69BD"/>
<path opacity="0.1" d="M299.53 211.756C299.385 216.519 297.64 221.092 294.578 224.734C296.934 227.942 298.343 231.751 298.644 235.725C298.945 239.699 298.125 243.677 296.279 247.206C294.432 250.734 291.633 253.67 288.203 255.677C284.772 257.685 280.848 258.683 276.878 258.557C272.909 258.431 269.055 257.187 265.757 254.967C262.459 252.747 259.851 249.64 258.229 246.002C256.608 242.364 256.04 238.341 256.589 234.394C257.139 230.447 258.784 226.735 261.337 223.682C258.626 219.984 299.604 209.375 299.53 211.756Z" fill="black"/>
</g>
<g opacity="0.2">
<path opacity="0.2" d="M217.982 274.972C217.969 275.419 217.918 275.863 217.83 276.301C214.958 275.843 212.069 275.429 209.165 275.059C209.165 274.943 209.165 274.823 209.165 274.703C209.191 273.461 209.548 272.249 210.196 271.191C211.046 269.841 212.338 268.997 213.761 269.042C215.185 269.088 216.419 270.011 217.182 271.407C217.759 272.503 218.036 273.733 217.982 274.972Z" fill="#3F3D56"/>
<path opacity="0.2" d="M218.215 267.898C218.316 264.695 216.422 262.036 213.985 261.959C211.547 261.882 209.49 264.415 209.389 267.618C209.288 270.82 211.182 273.479 213.619 273.556C216.057 273.634 218.114 271.1 218.215 267.898Z" fill="#3F3D56"/>
<path opacity="0.2" d="M218.44 260.808C218.541 257.606 216.647 254.947 214.21 254.87C211.773 254.792 209.715 257.326 209.614 260.528C209.513 263.731 211.407 266.39 213.845 266.467C216.282 266.544 218.339 264.011 218.44 260.808Z" fill="#3F3D56"/>
<path opacity="0.2" d="M218.661 253.719C218.762 250.516 216.868 247.857 214.43 247.78C211.993 247.703 209.936 250.236 209.835 253.439C209.734 256.641 211.628 259.3 214.065 259.377C216.502 259.455 218.56 256.921 218.661 253.719Z" fill="#3F3D56"/>
<path opacity="0.2" d="M218.882 246.629C218.983 243.427 217.089 240.768 214.652 240.691C212.214 240.613 210.157 243.147 210.056 246.349C209.955 249.552 211.849 252.21 214.286 252.288C216.724 252.365 218.781 249.832 218.882 246.629Z" fill="#3F3D56"/>
<path opacity="0.2" d="M199.455 197.437C198.874 196.647 198.35 195.817 197.887 194.952L209.548 193.408L196.996 193.105C195.876 190.439 195.31 187.571 195.332 184.678C195.354 181.784 195.964 178.925 197.124 176.276L213.679 185.573L198.515 173.63C200.044 171.147 202.068 169.008 204.459 167.345C206.849 165.682 209.556 164.531 212.41 163.965C215.264 163.4 218.203 163.43 221.044 164.055C223.886 164.681 226.568 165.887 228.924 167.6C231.28 169.312 233.259 171.494 234.737 174.008C236.215 176.522 237.16 179.315 237.514 182.213C237.868 185.111 237.623 188.05 236.794 190.848C235.965 193.647 234.57 196.243 232.697 198.476C233.6 199.704 234.368 201.028 234.987 202.423L219.682 209.793L235.911 204.895C236.933 208.279 237.098 211.865 236.39 215.33C235.683 218.794 234.125 222.026 231.859 224.734C234.215 227.942 235.624 231.751 235.925 235.725C236.225 239.699 235.406 243.677 233.559 247.206C231.713 250.734 228.914 253.67 225.484 255.677C222.053 257.685 218.128 258.683 214.159 258.557C210.19 258.431 206.336 257.187 203.038 254.967C199.74 252.747 197.131 249.64 195.51 246.002C193.889 242.364 193.321 238.341 193.87 234.394C194.42 230.447 196.065 226.735 198.618 223.682C195.803 219.848 194.354 215.176 194.503 210.416C194.653 205.656 196.393 201.085 199.443 197.437H199.455Z" fill="#4A69BD"/>
<path opacity="0.1" d="M236.811 211.756C236.666 216.519 234.921 221.092 231.859 224.734C234.215 227.942 235.624 231.751 235.925 235.725C236.225 239.699 235.406 243.677 233.559 247.206C231.713 250.734 228.914 253.67 225.484 255.677C222.053 257.685 218.128 258.683 214.159 258.557C210.19 258.431 206.336 257.187 203.038 254.967C199.74 252.747 197.131 249.64 195.51 246.002C193.889 242.364 193.321 238.341 193.87 234.394C194.42 230.447 196.065 226.735 198.618 223.682C195.907 219.984 236.885 209.375 236.811 211.756Z" fill="black"/>
</g>
<g opacity="0.2">
<path opacity="0.2" d="M389.305 279.502C389.273 280.348 389.173 281.19 389.004 282.02C383.474 281.134 377.905 280.342 372.296 279.643C372.296 279.419 372.296 279.192 372.296 278.96C372.349 276.568 373.035 274.234 374.285 272.198C375.936 269.601 378.412 267.974 381.147 268.057C383.883 268.139 386.264 269.924 387.749 272.612C388.869 274.729 389.406 277.107 389.305 279.502Z" fill="#3F3D56"/>
<path opacity="0.2" d="M389.754 265.869C389.948 259.702 386.3 254.581 381.606 254.433C376.911 254.284 372.948 259.162 372.754 265.33C372.56 271.497 376.208 276.617 380.902 276.766C385.597 276.915 389.56 272.036 389.754 265.869Z" fill="#3F3D56"/>
<path opacity="0.2" d="M390.183 252.22C390.377 246.053 386.729 240.933 382.034 240.784C377.34 240.635 373.377 245.514 373.183 251.681C372.988 257.848 376.637 262.968 381.331 263.117C386.026 263.266 389.989 258.387 390.183 252.22Z" fill="#3F3D56"/>
<path opacity="0.2" d="M390.616 238.571C390.81 232.404 387.162 227.284 382.467 227.135C377.773 226.986 373.81 231.865 373.616 238.032C373.422 244.199 377.07 249.32 381.764 249.468C386.459 249.617 390.422 244.739 390.616 238.571Z" fill="#3F3D56"/>
<path opacity="0.2" d="M390.561 224.301C390.746 218.131 387.088 213.014 382.391 212.873C377.694 212.732 373.737 217.619 373.553 223.789C373.368 229.96 377.026 235.076 381.723 235.218C386.42 235.359 390.377 230.472 390.561 224.301Z" fill="#3F3D56"/>
<path opacity="0.2" d="M353.633 130.237C352.52 128.717 351.512 127.122 350.617 125.463L373.064 122.49L348.905 121.906C346.747 116.773 345.655 111.252 345.696 105.681C345.737 100.111 346.911 94.6069 349.144 89.5068L381.02 107.4L351.83 84.4093C354.782 79.6406 358.68 75.533 363.283 72.3425C367.885 69.152 373.093 66.9471 378.582 65.8651C384.071 64.783 389.723 64.8471 395.186 66.0533C400.649 67.2596 405.806 69.582 410.336 72.876C414.865 76.1701 418.67 80.365 421.514 85.1994C424.357 90.0339 426.177 95.4042 426.862 100.976C427.546 106.547 427.08 112.2 425.492 117.583C423.904 122.966 421.228 127.963 417.632 132.262C419.37 134.629 420.849 137.176 422.043 139.861L392.577 154.06L423.817 144.619C425.786 151.126 426.107 158.023 424.75 164.686C423.393 171.349 420.402 177.567 416.047 182.778C420.582 188.954 423.294 196.286 423.872 203.936C424.451 211.586 422.872 219.245 419.317 226.037C415.763 232.829 410.375 238.48 403.771 242.344C397.166 246.208 389.612 248.129 381.971 247.888C374.33 247.646 366.911 245.251 360.562 240.977C354.214 236.703 349.192 230.723 346.07 223.72C342.949 216.716 341.854 208.973 342.912 201.375C343.969 193.776 347.135 186.63 352.049 180.753C346.633 173.372 343.845 164.379 344.132 155.218C344.419 146.056 347.766 137.257 353.633 130.233V130.237Z" fill="#4A69BD"/>
<path opacity="0.1" d="M425.554 157.8C425.284 166.963 421.94 175.767 416.064 182.786C420.599 188.962 423.311 196.295 423.889 203.945C424.467 211.594 422.889 219.253 419.334 226.045C415.779 232.838 410.392 238.489 403.787 242.353C397.183 246.217 389.628 248.138 381.988 247.896C374.347 247.654 366.928 245.259 360.579 240.986C354.23 236.712 349.208 230.731 346.087 223.728C342.965 216.725 341.871 208.981 342.928 201.383C343.985 193.785 347.152 186.638 352.066 180.761C346.809 173.635 425.699 153.215 425.554 157.8Z" fill="black"/>
</g>
<path d="M65.1211 280.231L69.4495 280.219H75.5523L83.2684 154.425L159.683 26.4566L156.361 22.8788V13.8184L73.7202 151.46L65.1211 280.231Z" fill="#F1C0C0"/>
<path opacity="0.1" d="M69.9111 280.219H75.5517L83.2679 154.425L159.682 26.4566L156.361 22.8788L77.5406 152.507L69.9111 280.219Z" fill="black"/>
<path d="M52.3662 281.279L250.365 296.484L250.534 296.497L442.154 284.67L442.298 284.662V276.542L231.157 272.653L55.0029 272.483H53.7155L53.5752 273.394L52.3662 281.279Z" fill="#F1C0C0"/>
<path opacity="0.1" d="M52.3662 281.279L250.365 296.484L250.534 296.497L442.154 284.67L442.298 284.513V276.711H442.129L250.365 283.138L55.0029 272.483H54.974L54.6274 272.711L53.5752 273.394L52.3662 281.279Z" fill="black"/>
<path opacity="0.1" d="M52.3662 281.279L250.365 296.484V283.138L54.6274 272.711L53.5752 273.394L52.3662 281.279Z" fill="black"/>
<path d="M156.336 22.709L243.627 116.734L240.929 282.124L248.343 283.022L248.467 283.039H255.882L256.769 123.835L420.223 178.629L422.979 276.19L428.946 276.86L430.968 277.088L426.289 171.862L255.42 111.661L161.729 13.9136H156.336V22.709Z" fill="#F1C0C0"/>
<path opacity="0.1" d="M256.097 120.792L256.769 123.835L420.223 178.629L422.979 276.189L428.946 276.86L424.267 176.599L256.097 120.792Z" fill="black"/>
<path opacity="0.1" d="M156.336 22.709L243.627 116.734L240.929 282.124L248.343 283.022L250.365 111.321L156.336 13.9136V22.709Z" fill="black"/>
<path d="M256.415 187.167L316.365 199.014L316.386 199.019L421.387 219.777L426.194 217.843L426.177 217.504L425.864 210.775L256.476 176.426L256.415 187.167Z" fill="#F1C0C0"/>
<path opacity="0.1" d="M316.386 199.019L421.387 219.777L426.194 217.843L426.177 217.504L316.386 199.019Z" fill="black"/>
<path d="M320.4 145.165L322.022 234.751L322.86 280.711L330.242 280.463L334.888 280.306L333.444 146.462L330.242 145.393L329.54 145.165H320.4Z" fill="#F1C0C0"/>
<path opacity="0.1" d="M320.467 145.145V145.165L322.022 234.751L322.86 280.711L330.242 280.463V145.145H320.467Z" fill="black"/>
<path d="M204.77 168.044C205.203 168.28 205.617 168.55 206.008 168.852C206.47 169.258 206.886 169.715 207.246 170.214C209.016 172.512 210.65 175.183 210.477 178.082C210.481 178.504 210.401 178.922 210.243 179.313C210.085 179.704 209.852 180.059 209.557 180.359C208.826 180.985 207.778 181.014 206.821 181.014C205.781 181.014 204.688 181.014 203.788 180.475C202.889 179.937 202.138 178.889 201.073 178.914C200.923 178.939 200.77 178.939 200.619 178.914C200.252 178.794 200.178 178.31 199.938 178.003C199.526 177.452 198.655 177.589 198.007 177.829C197.36 178.069 196.642 178.43 196.002 178.152C195.631 177.956 195.327 177.651 195.131 177.279C193.601 174.794 193.275 171.808 192.986 168.922C192.808 167.166 191.455 161.178 195.189 162.541C196.84 163.137 198.383 164.33 199.885 165.203L204.77 168.044Z" fill="#3F3D56"/>
<path d="M201.081 168.636C201.415 168.877 201.819 168.999 202.23 168.982C202.64 168.966 203.033 168.812 203.347 168.545C203.961 167.988 204.353 167.226 204.448 166.4C204.861 166.272 205.071 166.814 205.335 167.146C205.798 167.709 206.738 167.701 207.159 168.301C207.452 168.715 207.386 169.291 207.592 169.759C207.861 170.363 208.525 170.678 208.979 171.166C209.408 171.7 209.717 172.32 209.887 172.984L210.563 175.022C210.887 175.869 211.095 176.756 211.182 177.66C211.225 178.111 211.178 178.567 211.043 179C210.908 179.433 210.689 179.834 210.398 180.181C209.491 181.163 208.001 181.266 206.685 181.237C206.245 181.247 205.806 181.195 205.381 181.084C204.213 180.72 203.466 179.54 203.157 178.351C202.847 177.163 202.88 175.916 202.699 174.699C202.503 173.503 202.156 172.337 201.667 171.229C201.304 170.367 200.305 169.084 200.322 168.168C200.619 168.168 200.834 168.442 201.081 168.636Z" fill="#3F3D56"/>
<path d="M202.563 164.442C202.37 163.854 202.257 163.242 202.228 162.624C202.228 161.381 202.794 160.214 203.363 159.104L198.647 159.746C198.077 159.824 197.442 159.94 197.12 160.417C196.998 160.653 196.934 160.915 196.934 161.181C196.934 161.447 196.998 161.709 197.12 161.945C197.357 162.417 197.545 162.912 197.681 163.423C197.692 163.87 197.743 164.315 197.834 164.752C197.981 165.074 198.187 165.364 198.441 165.609C199.79 167.108 200.801 168.877 201.808 170.628C201.779 170.578 204.651 168.347 204.535 167.618C204.469 167.204 203.64 166.707 203.376 166.309C203.011 165.732 202.737 165.102 202.563 164.442Z" fill="#BE6F72"/>
<path d="M243 148.263V152.342L173.402 165.965L169.792 168.16H157.334V165.862L225.715 149.282L243 148.263Z" fill="#F1C0C0"/>
<path opacity="0.1" d="M243 152.342L173.402 165.965L169.792 168.16H157.334L226.223 153.365L243 152.342Z" fill="black"/>
<path d="M187.122 264.052C186.347 263.11 185.276 262.459 184.085 262.204C182.894 261.95 181.652 262.108 180.561 262.653C180.328 262.763 180.122 262.924 179.959 263.125C179.546 263.704 179.81 264.504 179.847 265.22C179.942 266.968 178.556 268.388 177.31 269.61C176.641 270.264 175.96 270.964 175.659 271.854C175.358 272.744 175.581 273.875 176.39 274.338C176.742 274.516 177.126 274.623 177.52 274.653C178.839 274.911 180.191 274.949 181.523 274.765C182.839 274.512 184.13 273.763 184.7 272.545C184.81 272.215 184.992 271.914 185.232 271.663C185.958 271.088 187.072 271.763 187.898 271.353C188.579 271.013 188.607 270.479 188.616 269.775C188.64 267.829 188.352 265.626 187.122 264.052Z" fill="#4A69BD"/>
<path d="M197.025 263.978C197.533 265.319 197.603 266.781 197.669 268.214C197.706 269.042 197.731 269.928 197.285 270.628C196.839 271.328 195.969 271.697 195.135 271.87C193.415 272.227 191.422 271.891 190.312 270.521C189.462 269.473 189.284 268.036 189.441 266.678C189.573 265.564 189.854 264.259 189.057 263.468C188.851 263.257 188.583 263.108 188.393 262.88C187.98 262.375 188.046 261.613 188.269 260.992C188.559 260.398 188.777 259.771 188.917 259.125C188.95 258.818 194.504 259.34 195.016 259.593C195.713 259.936 195.606 260.512 195.816 261.207C196.109 262.176 196.67 263.05 197.025 263.978Z" fill="#4A69BD"/>
<path d="M198.044 204.489C199.134 205.197 199.555 206.588 199.724 207.88C200.19 211.421 199.373 214.999 199.311 218.572C199.253 223.579 200.698 228.676 199.464 233.525C198.725 236.424 199.352 239.737 198.659 242.664C198.453 243.534 198.073 244.354 197.875 245.223C197.463 247.108 197.896 249.079 198.478 250.921C198.663 251.418 198.781 251.938 198.828 252.466C198.8 253.279 198.595 254.077 198.226 254.801L195.75 260.678C195.474 261.336 194.384 261.444 193.687 261.531C192.375 261.688 190.91 261.8 189.866 260.984C188.822 260.168 188.57 258.802 188.41 257.526C188.101 255.078 187.963 252.611 187.997 250.143C188.042 249.499 187.985 248.852 187.828 248.226C187.601 247.518 187.102 246.905 186.965 246.155C186.792 245.186 187.283 244.234 187.465 243.256C187.589 242.364 187.575 241.457 187.423 240.569C187.262 239.244 187.077 237.919 186.866 236.602C186.569 234.759 186.994 232.941 187.279 231.094C187.547 229.359 187.205 227.591 186.866 225.869C186.896 227.267 186.722 228.662 186.351 230.01C186.132 230.668 185.818 231.297 185.628 231.968C184.783 234.979 186.586 238.138 186.33 241.256C186.21 242.714 185.641 244.155 185.802 245.592C185.913 246.644 186.4 247.609 186.734 248.611C187.069 249.613 187.242 250.76 186.734 251.696C185.393 254.238 186.396 257.696 187.597 260.305C187.84 260.767 188.053 261.246 188.232 261.738C188.587 262.914 188.29 264.177 188.385 265.402C188.039 265.459 187.685 265.436 187.35 265.335C187.015 265.234 186.707 265.057 186.45 264.818C186.268 264.628 186.119 264.404 185.942 264.206C185.446 263.731 184.859 263.364 184.217 263.125C183.84 262.913 183.411 262.814 182.979 262.839C182.526 262.966 182.118 263.22 181.803 263.572C181.395 263.932 180.962 264.263 180.508 264.562C180.314 264.711 180.088 264.812 179.848 264.856C179.727 264.874 179.603 264.855 179.494 264.799C179.385 264.743 179.297 264.654 179.241 264.545C179.215 264.476 179.2 264.403 179.196 264.33C179.042 263.079 178.961 261.821 178.952 260.562C178.952 258.396 176.369 256.905 176.043 254.764C175.783 253.037 176.266 251.278 176.105 249.538C176.027 248.644 175.779 247.766 175.796 246.872C175.796 246.292 175.928 245.724 175.973 245.149C176.011 244.51 176.001 243.869 175.944 243.232L175.816 241.232C175.692 239.256 175.556 237.24 174.781 235.434C173.861 233.326 173.316 231.072 173.171 228.776C173.089 227.326 173.142 225.877 172.977 224.423C172.829 223.111 172.499 221.806 172.594 220.489C172.672 219.471 173.006 218.485 173.085 217.467C173.246 215.508 172.503 213.603 171.921 211.727C171.339 209.851 170.91 207.773 171.673 205.963C171.783 205.666 171.964 205.401 172.202 205.193C172.494 204.998 172.827 204.874 173.175 204.828C180.255 203.336 187.512 202.872 194.723 203.449C195.898 203.516 197.039 203.873 198.044 204.489Z" fill="#3F3D56"/>
<path d="M174.62 160.508C178.27 160.508 181.23 157.538 181.23 153.874C181.23 150.21 178.27 147.24 174.62 147.24C170.969 147.24 168.009 150.21 168.009 153.874C168.009 157.538 170.969 160.508 174.62 160.508Z" fill="#BE6F72"/>
<path d="M173.341 162.16C173.436 162.539 173.436 162.936 173.341 163.315C173.237 163.58 173.09 163.826 172.907 164.044C172.267 164.872 171.559 165.645 170.791 166.355C171.182 167.233 171.887 167.931 172.767 168.313C173.64 168.686 174.557 168.949 175.494 169.096C175.963 169.22 176.45 169.253 176.93 169.195C177.373 169.084 177.793 168.893 178.168 168.632L181.841 166.425C182.395 166.124 182.908 165.752 183.367 165.319C184.041 164.625 184.422 163.696 184.432 162.727C184.449 162.554 184.402 162.38 184.3 162.239C184.159 162.116 183.983 162.042 183.797 162.027C182.505 161.742 181.486 160.69 180.908 159.497C180.386 158.275 180.048 156.981 179.905 155.659L175.99 157.729C175.408 158.04 174.83 158.35 174.228 158.619C173.844 158.793 173.068 158.938 172.796 159.29C172.276 159.94 173.204 161.377 173.341 162.16Z" fill="#BE6F72"/>
<path d="M170.815 165.15C170.258 165.608 169.822 166.199 169.548 166.868C169.293 167.696 169.548 168.57 169.78 169.39C170.863 172.885 171.69 176.454 172.255 180.07C172.602 182.554 172.73 185.076 172.899 187.59C173.246 192.716 173.749 200.89 174.422 205.984C176.897 206.096 179.311 205.371 181.766 205.106C186.355 204.617 191.079 205.735 195.573 204.692C194.484 200.373 193.394 192.998 192.305 188.683C191.823 186.983 191.489 185.244 191.306 183.486C191.211 182.223 191.269 180.956 191.286 179.684C191.323 177.2 191.187 174.715 191.05 172.231C190.894 169.332 190.737 166.433 190.052 163.597C190.004 163.235 189.835 162.901 189.573 162.649C189.161 162.346 188.624 162.454 188.133 162.52C186.63 162.712 185.108 162.35 183.85 161.502C183.305 161.129 182.575 160.673 182.068 161.087C181.851 161.337 181.708 161.643 181.655 161.969C181.43 162.555 181.084 163.086 180.638 163.527C180.193 163.967 179.659 164.308 179.072 164.524C177.896 164.952 176.665 165.206 175.416 165.278C175.034 165.36 174.636 165.315 174.281 165.15C173.695 164.789 173.654 163.493 172.916 163.406C172.268 163.332 171.253 164.731 170.815 165.15Z" fill="#3F3D56"/>
<path d="M180.578 175.262C179.055 173.8 178.387 171.68 177.277 169.879C176.521 168.667 175.555 167.602 174.426 166.732C173.858 166.355 173.337 165.912 172.874 165.411C172.482 164.926 172.185 164.28 171.591 164.094C171.345 164.04 171.09 164.047 170.848 164.114C170.606 164.181 170.384 164.306 170.2 164.479C169.836 164.827 169.492 165.194 169.169 165.58C167.419 167.398 164.345 167.651 162.959 169.754C162.585 170.2 162.33 170.735 162.22 171.307C161.821 174.369 162.61 177.468 164.423 179.962C164.775 180.54 165.314 180.979 165.95 181.204C165.864 181.976 165.966 182.758 166.247 183.482C167.011 186.102 167.95 188.669 169.057 191.163C168.793 192.139 168.608 193.135 168.504 194.141C168.215 196.671 168.484 199.238 168.211 201.772C167.989 203.843 167.386 205.859 167.365 207.934C167.365 208.265 167.394 208.659 167.679 208.828C167.831 208.907 168 208.942 168.17 208.932L173.245 209.085C176.192 209.172 179.167 209.259 182.067 208.713C182.454 208.655 182.828 208.536 183.177 208.361C184.159 207.81 184.485 206.568 184.642 205.462C184.847 204.028 184.928 202.579 184.886 201.13C185.5 203.081 186.231 205.097 188.088 205.942C189.07 206.389 190.192 206.356 191.269 206.327C193.59 206.224 195.903 205.984 198.197 205.611C198.338 205.629 198.482 205.613 198.616 205.565C198.75 205.517 198.871 205.438 198.969 205.334C199.068 205.231 199.14 205.106 199.182 204.969C199.223 204.832 199.232 204.688 199.208 204.547L199.233 202.286C199.282 197.693 198.147 193.304 197.706 188.732C197.566 187.291 197.578 185.834 197.227 184.422C197.083 183.83 196.872 183.25 196.745 182.653C196.634 182.07 196.565 181.479 196.538 180.885L196.216 176.33C196.064 174.223 195.845 172.189 195.684 170.086C195.596 168.037 195.3 166.003 194.801 164.015C194.442 162.773 193.695 161.365 192.404 161.212C191.715 161.133 191.046 161.435 190.39 161.646C188.777 162.156 187.047 162.149 185.439 161.626C184.942 161.429 184.424 161.29 183.895 161.212C183.629 161.175 183.358 161.211 183.11 161.314C182.862 161.417 182.646 161.585 182.484 161.8C182.324 162.123 182.249 162.482 182.265 162.843C182.072 166.98 181.713 171.241 180.578 175.262Z" fill="#4A69BD"/>
<path d="M173.938 175.386C172.036 173.374 170.085 171.324 167.634 170.044C166.668 169.539 165.57 169.158 164.502 169.349C163.433 169.539 162.439 170.471 162.488 171.56C162.521 172.235 162.93 172.831 163.058 173.494C163.206 174.239 162.992 175.034 163.223 175.755C163.41 176.229 163.691 176.662 164.048 177.026L166.969 180.5C168.207 181.95 169.445 183.42 171.038 184.422C172.63 185.424 174.694 185.892 176.443 185.18C177.688 184.599 178.723 183.646 179.406 182.451C180.132 181.291 180.644 180.024 181.325 178.827C182.384 176.915 183.782 175.213 185.451 173.804C184.593 173.581 183.516 173.266 182.975 172.562C182.821 172.338 182.69 172.1 182.583 171.85L181.915 170.4C181.687 170.389 181.46 170.424 181.247 170.505C181.034 170.585 180.84 170.709 180.677 170.868C180.39 171.201 180.083 171.515 179.757 171.808C179.175 172.247 178.387 172.367 177.858 172.868C177.654 173.084 177.469 173.316 177.306 173.564C176.906 174.091 176.399 174.526 175.818 174.84C175.238 175.155 174.597 175.341 173.938 175.386Z" fill="#3F3D56"/>
<path d="M185.604 166.727C187.036 164.106 186.97 160.963 187.378 158.002C187.422 157.218 187.696 156.465 188.166 155.837C188.991 154.901 190.448 154.888 191.694 155.008C192.061 155.05 192.519 155.224 192.499 155.592C192.47 155.724 192.406 155.846 192.313 155.944C191.105 157.509 190.395 159.402 190.275 161.377C190.923 161.829 191.925 160.901 192.548 161.377C192.961 161.725 192.771 162.413 192.524 162.909C191.949 164.061 191.356 165.204 190.745 166.338C190.258 167.338 189.622 168.258 188.859 169.067C188.335 169.572 187.721 169.97 187.188 170.467C185.95 171.63 185.203 173.274 183.924 174.409C183.816 174.526 183.67 174.601 183.512 174.62C183.349 174.608 183.196 174.539 183.078 174.425C182.439 173.904 181.909 173.261 181.519 172.533C181.032 171.63 181.106 171.365 181.874 170.728C183.31 169.589 184.708 168.367 185.604 166.727Z" fill="#BE6F72"/>
<path d="M171.545 173.606C171.793 173.759 172.098 173.933 172.371 173.804C172.482 173.737 172.576 173.645 172.647 173.535C173.119 172.903 173.512 172.216 173.819 171.489C173.872 171.387 173.901 171.274 173.906 171.158C173.906 170.893 173.67 170.699 173.452 170.545C172.28 169.796 171.02 169.195 169.701 168.756C168.612 168.342 167.473 167.982 166.317 168.086C165.883 168.115 165.46 168.232 165.072 168.43C164.684 168.628 164.34 168.902 164.06 169.237C163.235 170.301 164.617 170.624 165.484 171.009C167.489 171.924 169.66 172.454 171.545 173.606Z" fill="#4A69BD"/>
<path opacity="0.1" d="M170.246 180.645C170.232 180.74 170.24 180.836 170.27 180.927C170.3 181.017 170.351 181.1 170.419 181.167C170.539 180.579 170.382 179.958 170.506 179.366C170.687 178.475 171.55 177.804 171.624 176.91C170.044 176.599 170.258 179.684 170.246 180.645Z" fill="black"/>
<path opacity="0.2" d="M243 148.263V152.342L226.222 153.365L225.715 149.282L243 148.263Z" fill="black"/>
<path d="M168.669 154.859C169.718 154.002 169.111 152.205 169.821 151.054C170.233 150.424 170.931 150.093 171.616 149.812C172.442 149.423 173.328 149.177 174.236 149.083C174.69 149.039 175.149 149.098 175.578 149.257C176.006 149.415 176.394 149.669 176.712 149.998C176.98 150.304 177.161 150.677 177.413 150.996C177.725 151.368 178.131 151.648 178.589 151.807C179.046 151.966 179.538 151.998 180.013 151.899C180.561 151.774 181.131 151.356 181.094 150.793C181.032 150.45 180.857 150.139 180.599 149.907L179.418 148.594C178.077 147.103 176.588 145.522 174.62 145.149C173.25 144.888 171.847 145.257 170.526 145.7C169.994 145.878 169.396 146.143 169.247 146.685C169.148 147.058 169.297 147.464 169.21 147.841C169.041 148.59 168.084 148.843 167.638 149.472C167.192 150.101 167.328 150.847 167.201 151.543C167.073 152.238 166.701 152.917 166.656 153.638C166.627 154.073 166.846 154.88 167.333 155.037C167.819 155.195 168.368 154.342 168.669 154.859Z" fill="#3F3D56"/>
<path d="M180.693 150.197C180.346 148.375 179.595 146.654 178.498 145.161C177.523 143.766 176.166 142.685 174.591 142.047C173.803 141.739 172.957 141.613 172.114 141.68C171.272 141.746 170.455 142.004 169.726 142.432C168.643 143.208 167.801 144.274 167.295 145.509C166.227 147.82 165.831 150.644 167.073 152.863C167.568 152.259 168.418 152.532 169.169 152.313C170.11 152.044 170.906 151.414 171.801 151.021C174.504 149.824 177.805 150.793 180.693 150.197Z" fill="#FED253"/>
<path opacity="0.1" d="M167.704 150.068C167.609 149.323 167.547 148.458 168.075 147.927C168.102 147.895 168.135 147.869 168.173 147.852C168.211 147.835 168.252 147.826 168.294 147.828C168.331 147.84 168.365 147.859 168.394 147.885C168.423 147.911 168.447 147.942 168.463 147.977C168.768 148.46 169.028 148.97 169.239 149.501C168.931 149.43 168.61 149.453 168.315 149.567C168.021 149.682 167.768 149.882 167.588 150.143" fill="black"/>
<path opacity="0.1" d="M177.347 147.965L177.198 146.486C177.174 146.365 177.184 146.239 177.227 146.122C177.289 146.025 177.385 145.954 177.497 145.923C177.608 145.892 177.726 145.904 177.83 145.956C178.033 146.069 178.2 146.237 178.312 146.441C178.656 146.97 178.941 147.535 179.162 148.126C178.498 147.998 177.814 148.006 177.153 148.151" fill="black"/>
<path opacity="0.1" d="M181.04 207.963V211.342L178.197 211.533H163.243V207.963H181.04Z" fill="black"/>
<path d="M181.04 207.963V211.533H163.244L115.965 152.097V149.29H125.876L181.04 207.963Z" fill="#F1C0C0"/>
<path opacity="0.1" d="M181.04 207.963V211.533H163.244L115.965 152.097V149.29H125.876L181.04 207.963Z" fill="black"/>
<path opacity="0.1" d="M181.04 207.963V211.533H163.244L115.965 152.097V149.29L163.499 207.963H181.04Z" fill="black"/>
<path d="M122.162 267.535C122.193 267.703 122.189 267.876 122.151 268.042C122.113 268.208 122.041 268.365 121.939 268.502C121.838 268.64 121.709 268.754 121.561 268.839C121.414 268.924 121.25 268.978 121.081 268.997C119.934 269.386 118.717 269.771 117.904 270.653C117.091 271.535 116.93 273.171 117.904 273.887C118.402 274.188 118.973 274.345 119.554 274.339C121.423 274.467 123.371 274.442 125.067 273.647C126.28 273.084 127.423 272.123 128.756 272.21C129.445 272.252 130.179 272.574 130.794 272.26C131.409 271.945 131.582 271.067 131.586 270.334C131.602 268.804 131.372 267.281 130.906 265.825C130.844 265.626 128.219 265.473 127.906 265.411L124.724 264.997C124.122 264.918 122.822 264.462 122.348 264.968C121.873 265.473 122.162 266.935 122.162 267.535Z" fill="#4A69BD"/>
<path d="M141.147 257.199C141.282 257.945 141.501 258.673 141.799 259.369C142.241 260.495 142.806 261.692 143.887 262.239C144.869 262.731 146.074 262.553 147.073 262.085C147.49 261.912 147.855 261.634 148.133 261.278C148.455 260.714 148.599 260.066 148.546 259.419C148.546 257.816 148.451 256.16 147.721 254.735C147.093 253.493 146 252.425 145.983 251.05L142.224 251.779C142.023 251.798 141.831 251.874 141.671 251.998C141.552 252.124 141.47 252.28 141.432 252.449C141.031 253.999 140.934 255.612 141.147 257.199Z" fill="#4A69BD"/>
<path d="M96.2574 217.86C96.1006 219.193 96.1667 220.622 96.8599 221.773C97.5531 222.924 99.0138 223.686 100.276 223.227C100.341 223.21 100.402 223.181 100.455 223.14C100.508 223.1 100.553 223.049 100.586 222.991C100.619 222.851 100.6 222.703 100.532 222.576C99.9748 221.084 100.021 219.431 100.66 217.972C100.743 217.781 100.92 217.558 101.114 217.632C101.195 217.673 101.26 217.74 101.3 217.823C101.499 218.169 101.599 218.565 101.589 218.966C101.53 219.328 101.519 219.697 101.556 220.063C101.634 220.419 102.014 220.754 102.344 220.601C102.439 220.542 102.522 220.465 102.586 220.373C102.651 220.281 102.696 220.177 102.719 220.067C103.639 217.396 103.223 214.477 102.802 211.682C102.805 211.617 102.795 211.553 102.771 211.494C102.747 211.434 102.71 211.38 102.663 211.337C102.616 211.293 102.561 211.26 102.5 211.24C102.439 211.22 102.374 211.214 102.311 211.222C100.363 211.027 99.2985 210.559 98.1844 212.377C97.2271 213.909 96.2574 216.017 96.2574 217.86Z" fill="#4A69BD"/>
<path d="M119.026 211.065C118.449 213.475 117.867 215.914 117.83 218.39C117.84 219.932 117.956 221.472 118.176 222.999L118.609 226.585C118.758 227.794 118.902 228.999 119.113 230.196C119.247 230.812 119.32 231.441 119.332 232.072C119.291 232.694 119.193 233.311 119.039 233.914C118.779 235.182 118.634 236.471 118.605 237.766C118.56 239.836 118.816 241.906 118.977 243.977C119.298 248.103 119.25 252.249 118.832 256.367C118.666 257.478 118.906 258.612 119.509 259.559C119.754 259.858 119.955 260.19 120.107 260.545C120.417 261.493 119.695 262.441 119.509 263.415C119.39 264.173 119.576 264.949 120.027 265.57C120.477 266.191 121.155 266.607 121.91 266.727C125.211 267.121 128.603 266.943 131.578 268.458C131.892 267.539 131.207 266.495 131.521 265.56C131.719 264.98 132.263 264.603 132.635 264.114C133.134 263.37 133.382 262.485 133.344 261.588C133.359 260.418 133.152 259.256 132.734 258.164C132.383 257.253 131.88 256.354 131.908 255.377C131.908 254.897 132.078 254.391 131.884 253.948C131.751 253.694 131.57 253.467 131.351 253.282C130.118 251.926 129.36 250.203 129.193 248.375C129.032 246.561 129.091 244.734 129.367 242.933C129.569 241.219 129.841 239.409 130.926 238.072C130.423 234.016 130.719 229.901 131.797 225.96C131.904 225.595 132.073 225.173 132.445 225.086C132.592 225.071 132.741 225.091 132.879 225.146C133.017 225.201 133.14 225.288 133.237 225.401C133.885 226.009 134.194 226.891 134.475 227.736C134.784 228.651 135.098 229.629 134.863 230.564C134.764 230.978 134.566 231.343 134.45 231.74C134.199 232.539 134.243 233.402 134.574 234.171C134.735 234.452 134.836 234.764 134.871 235.086C134.833 235.363 134.749 235.632 134.624 235.881C134.47 236.371 134.422 236.888 134.481 237.398C134.54 237.908 134.705 238.4 134.966 238.842C135.492 239.722 136.141 240.521 136.893 241.215C136.534 242.804 136.627 244.463 137.161 246.002C137.2 246.071 137.224 246.147 137.234 246.226C137.243 246.305 137.236 246.385 137.215 246.462C137.141 246.619 136.951 246.677 136.802 246.789C136.39 247.128 136.645 247.77 136.922 248.213C137.68 249.429 138.516 250.594 139.426 251.7C140.252 252.69 140.177 254.599 141.407 254.955C141.924 255.067 142.458 255.067 142.975 254.955C144.188 254.768 145.542 254.416 146.136 253.34C146.379 252.897 146.478 252.358 146.858 252.027C147.238 251.696 147.729 251.638 147.939 251.24C148.149 250.843 147.914 250.321 147.984 249.861C148.055 249.402 148.455 249.033 148.583 248.549C148.888 247.431 147.588 246.511 147.411 245.368C147.155 243.712 149.235 242.47 149.148 240.813C148.966 237.215 148.851 233.6 148.665 230.001C148.432 226.778 148.399 223.543 148.566 220.316C148.711 218.307 148.979 216.204 148.244 214.336C147.188 211.702 144.275 210.224 141.457 209.942C138.638 209.661 135.828 210.332 133.035 210.771C128.399 211.488 123.688 211.587 119.026 211.065Z" fill="#3F3D56"/>
<path d="M127.403 171.485C131.054 171.485 134.013 168.515 134.013 164.852C134.013 161.188 131.054 158.218 127.403 158.218C123.752 158.218 120.792 161.188 120.792 164.852C120.792 168.515 123.752 171.485 127.403 171.485Z" fill="#FBBEBE"/>
<path d="M124.712 172.724C124.488 173.248 124.11 173.692 123.629 173.998C123.148 174.303 122.587 174.455 122.018 174.434C121.779 175.428 122.352 176.43 123.008 177.212C124.371 178.803 126.131 180.001 128.108 180.681C130.085 181.362 132.208 181.501 134.256 181.084C135.054 180.941 135.81 180.624 136.472 180.157C137.365 179.408 137.964 178.367 138.164 177.216C138.354 176.074 138.408 174.914 138.325 173.759C138.348 173.531 138.283 173.302 138.143 173.121C137.978 172.993 137.774 172.926 137.566 172.931C136.171 172.806 134.714 172.753 133.489 172.065C132.263 171.378 131.393 169.825 131.983 168.549C131.888 168.748 129.478 168.843 129.16 168.885C128.166 169.026 127.172 169.183 126.181 169.365C125.705 169.391 125.235 169.481 124.782 169.63C124.184 169.941 124.407 169.788 124.547 170.351C124.758 171.212 125.067 171.829 124.712 172.724Z" fill="#FBBEBE"/>
<path d="M129.742 176.757C128.852 176.767 127.964 176.668 127.097 176.463C126.223 176.258 125.452 175.741 124.927 175.009C124.622 174.546 124.424 173.962 123.937 173.701C123.14 173.287 122.233 173.987 121.597 174.628C121.019 175.261 120.348 175.803 119.608 176.235C118.725 176.703 117.694 176.869 116.86 177.419C116.209 177.913 115.65 178.519 115.21 179.208L109.363 187.2C107.015 190.414 104.972 193.863 102.88 197.255C101.069 200.19 100.12 203.57 98.7541 206.737C98.646 206.931 98.6012 207.154 98.6262 207.375C98.6757 207.59 98.9357 207.764 99.1172 207.64C98.5024 208.253 99.043 209.296 98.8986 210.158C98.7344 210.76 98.392 211.299 97.9165 211.702C98.8247 211.583 99.7467 211.627 100.64 211.831C101.563 212.093 102.434 212.514 103.215 213.073C103.714 212.994 103.669 212.104 104.04 211.773C104.263 211.578 104.593 211.603 104.886 211.545C105.987 211.33 106.425 210 107.271 209.251C107.976 208.626 108.975 208.423 109.722 207.835C110.935 206.878 111.195 205.176 111.83 203.764C112.371 202.567 113.221 201.524 113.695 200.298C114.005 199.503 114.153 198.642 114.595 197.909C115.3 196.725 116.629 196.095 117.896 195.528C118.696 195.168 119.546 194.795 120.409 194.853C120.363 196.778 120.12 198.675 120.537 200.555C120.681 201.217 120.883 201.863 121.057 202.522C121.845 205.487 122.03 208.576 122.068 211.632C123.963 211.197 125.9 210.963 127.844 210.936C129.375 210.891 130.902 211.09 132.433 211.061C134.248 211.027 136.043 210.675 137.859 210.551C139.674 210.427 141.572 210.551 143.178 211.379C143.047 208.755 143.12 206.124 143.396 203.512L143.834 199.395C143.932 198.2 144.116 197.012 144.382 195.842C144.622 194.898 144.968 193.987 145.232 193.047C146.161 189.735 145.992 186.198 145.814 182.749C145.723 180.976 145.043 179.233 144.242 177.655C143.952 177.069 143.621 176.505 143.252 175.966C142.284 174.628 140.995 173.559 139.505 172.856C138.014 172.154 136.37 171.842 134.727 171.949C134.517 171.956 134.31 172.001 134.116 172.082C133.768 172.305 133.496 172.63 133.336 173.013C132.483 174.553 131.244 175.843 129.742 176.757Z" fill="#3F3D56"/>
<path d="M121.589 167.05C121.775 166.636 122.274 166.483 122.579 166.152C123.165 165.522 122.901 164.516 122.992 163.667C123.14 162.425 124.168 161.386 125.344 160.943C126.543 160.556 127.819 160.475 129.057 160.706C129.653 160.75 130.229 160.942 130.733 161.266C130.947 161.423 131.145 161.626 131.347 161.771C131.716 161.994 132.157 162.064 132.576 161.966C132.996 161.868 133.36 161.609 133.592 161.245C132.131 159.481 130.514 157.617 128.294 157.075C127.532 156.919 126.756 156.845 125.979 156.855C124.952 156.835 123.891 156.818 122.942 157.211C121.651 157.746 120.743 158.976 120.277 160.301C119.869 161.644 119.651 163.038 119.629 164.442C119.544 165.378 119.544 166.321 119.629 167.257C119.788 168.537 120.262 169.756 121.007 170.806C121.108 170.969 121.25 171.102 121.42 171.191C123.301 172.02 121.436 167.394 121.589 167.05Z" fill="#3F3D56"/>
<path d="M133.378 160.222C133.151 158.272 131.764 156.661 130.291 155.365C129.104 154.241 127.689 153.386 126.144 152.859C124.589 152.4 122.798 152.499 121.465 153.431C120.392 154.18 119.711 155.373 119.187 156.574C118.499 157.991 118.158 159.553 118.193 161.129C118.296 162.694 119.055 164.28 120.409 165.071C120.896 164.35 121.741 163.978 122.554 163.684C126.097 162.335 129.71 161.179 133.378 160.222Z" fill="#FED253"/>
<path opacity="0.1" d="M120.862 159.41C120.994 159.41 121.081 159.547 121.147 159.659C121.483 160.184 121.772 160.738 122.009 161.315C121.527 161.419 120.697 161.535 120.458 161.108C120.33 160.893 120.483 159.39 120.862 159.41Z" fill="black"/>
<path opacity="0.1" d="M130.266 158.474C130.167 158.57 130.052 158.375 130.052 158.234V156.628C130.049 156.583 130.059 156.538 130.081 156.499C130.098 156.48 130.119 156.464 130.142 156.452C130.165 156.441 130.191 156.434 130.217 156.433C130.551 156.396 130.827 156.681 131.042 156.955C131.368 157.398 131.651 157.87 131.888 158.367L130.142 158.313" fill="black"/>
<path d="M152.049 185.08C152.429 184.718 152.834 184.385 153.262 184.082C154.405 183.316 155.787 183.014 157.071 182.525C158.354 182.036 159.658 181.246 160.157 179.962C160.407 179.159 160.488 178.313 160.396 177.477C160.408 177.127 160.346 176.779 160.215 176.454C160.058 176.168 159.834 175.924 159.563 175.742C157.822 174.45 155.486 174.347 153.324 174.479C148.557 174.776 143.885 175.946 139.538 177.933C139.308 178.009 139.107 178.153 138.96 178.347C138.876 178.526 138.837 178.724 138.849 178.923C138.772 180.144 138.93 181.368 139.315 182.529C139.885 184.003 141.057 185.192 141.548 186.695C141.77 187.37 141.845 188.086 142.039 188.766C142.198 189.467 142.611 190.084 143.198 190.496C144.828 191.474 146.367 190.161 147.498 189.142L152.049 185.08Z" fill="#3F3D56"/>
<path d="M130.704 190.815L128.612 186.235C128.305 185.601 128.04 184.946 127.82 184.277C127.58 183.478 127.465 182.649 127.242 181.846C126.507 179.171 124.655 176.943 123.751 174.322C123.694 174.085 123.577 173.867 123.413 173.688C123.281 173.595 123.13 173.531 122.971 173.503C122.812 173.474 122.649 173.481 122.493 173.523C121.23 173.742 120.244 174.707 119.088 175.254C118.552 175.502 117.974 175.668 117.438 175.953C117.17 176.081 116.932 176.265 116.741 176.493C116.55 176.721 116.411 176.987 116.332 177.274C116.204 177.908 116.518 178.517 116.782 179.134C117.904 181.676 118.16 184.517 118.209 187.3C118.247 189.171 118.152 191.18 117.05 192.683C114.933 195.582 116.287 199.839 117.079 203.346C117.174 203.76 117.285 204.207 117.351 204.646C117.421 205.195 117.453 205.749 117.446 206.303C117.446 208.162 117.343 210.079 116.567 211.764C117.333 212.173 118.177 212.413 119.043 212.468C121.439 212.775 123.845 212.99 126.26 213.114C127.017 213.186 127.78 213.147 128.525 212.998C129.411 212.758 130.191 212.229 130.743 211.494C131.295 210.759 131.588 209.861 131.574 208.94C131.707 210.087 131.95 211.334 132.779 212.129C133.609 212.924 134.818 213.044 135.944 213.106C139.123 213.275 142.311 213.185 145.476 212.837C145.678 212.828 145.876 212.781 146.062 212.7C146.672 212.394 146.706 211.549 146.656 210.87C146.565 209.599 146.47 208.327 146.318 207.064C146.188 206.259 146.122 205.445 146.12 204.63C146.182 203.791 146.321 202.959 146.532 202.145C147.085 199.561 147.523 196.923 147.337 194.277C147.263 193.633 147.237 192.984 147.258 192.335C147.366 190.873 148.133 189.482 147.989 188.029C147.576 183.755 147.242 179.37 146.054 175.245C145.839 174.508 145.567 173.717 144.927 173.295C144.102 172.74 142.942 173.03 141.997 172.678C141.554 172.471 141.132 172.22 140.739 171.928C139.884 171.392 138.904 171.089 137.896 171.051C137.137 171.022 136.291 171.191 135.833 171.804C135.621 172.149 135.48 172.534 135.42 172.935C134.822 175.461 134.12 177.958 133.419 180.455L132.746 182.848L130.943 189.275C130.766 189.958 130.885 190.169 130.704 190.815Z" fill="#4A69BD"/>
<path d="M141.254 165.742L181.168 207.835V211.404H163.371L133.377 172.119" fill="#F1C0C0"/>
<path opacity="0.1" d="M141.254 165.742L181.168 207.835V211.404H163.371L133.377 172.119" fill="black"/>
<path opacity="0.1" d="M134.013 171.564L134.141 171.61L163.627 207.835H181.168V211.404H163.371L133.377 172.119L134.013 171.564Z" fill="black"/>
<path d="M138.605 172.45C137.161 173.084 135.556 173.895 135.123 175.419C135.037 175.687 135.019 175.971 135.069 176.247C135.175 176.572 135.376 176.858 135.646 177.065C135.917 177.273 136.243 177.394 136.584 177.411C137.263 177.428 137.939 177.304 138.568 177.047L147.089 174.223C147.32 174.148 147.584 174.036 147.642 173.808C147.657 173.665 147.628 173.521 147.559 173.394C147.295 172.748 147.035 171.427 146.482 170.976C146.029 170.612 145.129 170.74 144.58 170.748C142.468 170.765 140.483 171.622 138.605 172.45Z" fill="#4A69BD"/>
<path d="M146.202 174.558C147.637 174.554 149.065 174.776 150.431 175.216C151.804 175.664 153.02 176.497 153.935 177.618C154.201 177.931 154.39 178.303 154.488 178.703C154.57 179.117 155.915 179.366 155.618 179.647C156.522 179.502 156.307 179.929 157.223 179.921C158.139 179.912 159.13 179.676 159.678 178.943C160.06 178.341 160.23 177.628 160.161 176.918C160.173 176.427 160.08 175.938 159.889 175.486C159.476 174.616 158.527 174.148 157.652 173.746L150.283 170.363C149.855 170.135 149.397 169.972 148.921 169.879C148.521 169.841 148.118 169.85 147.72 169.908L144.382 170.293C145.112 170.767 145.707 171.424 146.107 172.198C146.507 172.973 146.699 173.839 146.664 174.711" fill="#3F3D56"/>
</g>
<defs>
<clipPath id="clip0">
<rect width="486" height="300" fill="white"/>
</clipPath>
</defs>
</svg>
