<svg width="32" height="32" viewBox="0 0 32 32" fill="none" xmlns="http://www.w3.org/2000/svg">
<path d="M6.27392 0.00805664C2.82698 0.00805664 0.00585938 2.82911 0.00585938 6.27612V25.727C0.00585938 29.174 2.82692 31.9941 6.27392 31.9941H25.7248C29.1718 31.9941 31.9919 29.174 31.9919 25.727V6.27612C31.9919 2.82918 29.1718 0.00805664 25.7248 0.00805664H6.27392ZM7.85044 5.28639C9.50317 5.28639 10.5212 6.37139 10.5526 7.79759C10.5526 9.19231 9.50311 10.3078 7.81847 10.3078H7.78746C6.16618 10.3078 5.11828 9.19238 5.11828 7.79759C5.11828 6.37142 6.19789 5.28639 7.8504 5.28639H7.85044ZM22.093 11.9523C25.2715 11.9523 27.6543 14.0298 27.6543 18.4943V26.8286H22.8238V19.053C22.8238 17.0991 22.1247 15.7661 20.3765 15.7661C19.042 15.7661 18.2466 16.6646 17.8973 17.5325C17.7697 17.8431 17.7384 18.2768 17.7384 18.7112V26.8286H12.9079C12.9079 26.8286 12.9713 13.657 12.9079 12.2932H17.7394V14.3515C18.3813 13.3611 19.5295 11.9523 22.093 11.9523V11.9523ZM5.4032 12.2942H10.2337V26.8287H5.4032V12.2942V12.2942Z" fill="#5D5B78"/>
</svg>
