<svg width="176" height="42" viewBox="0 0 176 42" fill="none" xmlns="http://www.w3.org/2000/svg">
<path d="M20.7274 9.14014C20.588 9.1938 20.4492 9.24992 20.311 9.30849C20.0938 9.40039 19.8798 9.49768 19.669 9.60036C18.8693 9.98801 18.1097 10.4537 17.4011 10.9906C17.1164 11.2052 16.8398 11.4319 16.5713 11.6706C17.3611 11.8928 18.1226 12.2061 18.8403 12.6043C19.1076 12.4082 19.3839 12.2236 19.669 12.0503C20.3841 11.6153 21.1444 11.2599 21.9366 10.9906C22.2824 10.8729 22.6351 10.7716 22.9946 10.6866C22.2896 10.1001 21.5304 9.58231 20.7274 9.14014Z" fill="#EDEDED"/>
<path d="M19.6693 9.60034C18.8696 9.988 18.1099 10.4537 17.4014 10.9906C18.1938 11.2607 18.9543 11.6169 19.6693 12.0529C20.3842 11.617 21.1446 11.2607 21.9368 10.9906C21.2283 10.4537 20.4688 9.98808 19.6693 9.60034Z" fill="url(#paint0_linear)"/>
<path d="M27.387 21.9459C27.3893 23.7476 27.0363 25.5319 26.3482 27.1964C25.6602 28.8609 24.6506 30.3728 23.3776 31.6451C23.179 31.8441 22.9753 32.0363 22.7664 32.2219C22.4974 32.4601 22.2208 32.6867 21.9366 32.9019C21.2281 33.4387 20.4686 33.9043 19.669 34.2917C19.4582 34.3947 19.2441 34.4927 19.0267 34.5858C18.8887 34.6441 18.7499 34.7001 18.6103 34.7538C15.6814 35.8845 12.4537 35.9723 9.46786 35.0025C6.48206 34.0327 3.91956 32.0643 2.20965 29.4269C0.49974 26.7896 -0.253704 23.6435 0.0755426 20.5159C0.404789 17.3882 1.79673 14.4689 4.01816 12.2471C5.89102 10.3723 8.26574 9.08111 10.8553 8.5297C13.4448 7.97828 16.1384 8.19021 18.6103 9.13988C17.8073 9.5821 17.0481 10.0999 16.3431 10.6863C15.4762 10.4823 14.5886 10.3796 13.6981 10.3801C7.33308 10.3801 2.15489 15.5683 2.15489 21.9459C2.15489 28.3236 7.33308 33.5121 13.6981 33.5121C14.5886 33.5125 15.4762 33.4096 16.3431 33.2055C16.7026 33.121 17.0553 33.0196 17.4011 32.9015C18.1934 32.632 18.9538 32.2765 19.669 31.8414C19.9535 31.6686 20.2296 31.4839 20.4974 31.2871C23.3713 29.1823 25.2412 25.7784 25.2412 21.9459C25.2412 18.1134 23.3713 14.7103 20.4974 12.604C21.2149 12.2055 21.9764 11.8922 22.7664 11.6704C22.975 11.8561 23.1787 12.0484 23.3776 12.2471C24.6506 13.5194 25.6601 15.0312 26.3482 16.6956C27.0362 18.3601 27.3892 20.1444 27.387 21.9459Z" fill="#4A69BD"/>
<path d="M38.2525 16.6063C36.8671 13.3283 34.2653 10.7175 30.9959 9.32459C27.7265 7.93165 24.0449 7.86541 20.7277 9.13984C20.5883 9.19351 20.4495 9.24963 20.3113 9.3082C20.0941 9.4001 19.8801 9.49739 19.6693 9.60007C18.8696 9.98772 18.11 10.4534 17.4014 10.9903C17.1167 11.205 16.8401 11.4316 16.5716 11.6703C16.3627 11.8561 16.159 12.0483 15.9604 12.2471C14.6879 13.52 13.6784 15.0318 12.9896 16.696C12.3008 18.3602 11.9463 20.1442 11.9463 21.9459C11.9463 23.7475 12.3008 25.5315 12.9896 27.1958C13.6784 28.86 14.6879 30.3718 15.9604 31.6447C16.159 31.8437 16.3627 32.0359 16.5716 32.2214C17.3616 31.9994 18.1231 31.6858 18.8406 31.287C15.9674 29.1822 14.0964 25.7784 14.0964 21.9459C14.0964 18.1134 15.9674 14.7103 18.8406 12.604C19.1079 12.4079 19.3842 12.2233 19.6693 12.05C20.3844 11.615 21.1447 11.2596 21.9369 10.9903C22.2827 10.8727 22.6354 10.7713 22.9949 10.6863C23.8618 10.4823 24.7494 10.3795 25.6399 10.3801C32.0049 10.3801 37.1827 15.5682 37.1827 21.9459C37.1827 28.3235 32.0049 33.5121 25.6399 33.5121C24.7494 33.5125 23.8618 33.4096 22.9949 33.2055C22.2899 33.7919 21.5307 34.3097 20.7277 34.7519C23.235 35.7157 25.9698 35.9196 28.5919 35.3382C31.2139 34.7569 33.6075 33.416 35.4751 31.4824C37.3426 29.5487 38.6015 27.1076 39.0953 24.4626C39.5892 21.8177 39.296 19.0856 38.2525 16.6063Z" fill="url(#paint1_linear)"/>
<path d="M38.2525 16.6063C36.8671 13.3283 34.2653 10.7175 30.9959 9.32459C27.7265 7.93165 24.0449 7.86541 20.7277 9.13984C20.5883 9.19351 20.4495 9.24963 20.3113 9.3082C20.0941 9.4001 19.8801 9.49739 19.6693 9.60007C18.8696 9.98772 18.11 10.4534 17.4014 10.9903C17.1167 11.205 16.8401 11.4316 16.5716 11.6703C16.3627 11.8561 16.159 12.0483 15.9604 12.2471C14.6879 13.52 13.6784 15.0318 12.9896 16.696C12.3008 18.3602 11.9463 20.1442 11.9463 21.9459C11.9463 23.7475 12.3008 25.5315 12.9896 27.1958C13.6784 28.86 14.6879 30.3718 15.9604 31.6447C16.159 31.8437 16.3627 32.0359 16.5716 32.2214C17.3616 31.9994 18.1231 31.6858 18.8406 31.287C15.9674 29.1822 14.0964 25.7784 14.0964 21.9459C14.0964 18.1134 15.9674 14.7103 18.8406 12.604C19.1079 12.4079 19.3842 12.2233 19.6693 12.05C20.3844 11.615 21.1447 11.2596 21.9369 10.9903C22.2827 10.8727 22.6354 10.7713 22.9949 10.6863C23.8618 10.4823 24.7494 10.3795 25.6399 10.3801C32.0049 10.3801 37.1827 15.5682 37.1827 21.9459C37.1827 28.3235 32.0049 33.5121 25.6399 33.5121C24.7494 33.5125 23.8618 33.4096 22.9949 33.2055C22.2899 33.7919 21.5307 34.3097 20.7277 34.7519C23.235 35.7157 25.9698 35.9196 28.5919 35.3382C31.2139 34.7569 33.6075 33.416 35.4751 31.4824C37.3426 29.5487 38.6015 27.1076 39.0953 24.4626C39.5892 21.8177 39.296 19.0856 38.2525 16.6063Z" fill="white"/>
<path d="M62.1587 8.43604C60.0481 8.43604 57.9866 9.00431 56.0333 10.1232C54.5256 10.9879 53.3122 12.088 52.4123 13.4044V8.9813H50.0557V42H52.4123V27.6206C53.3762 28.9715 54.6319 30.0915 56.1584 30.9612C58.0964 32.0644 60.1153 32.6238 62.1587 32.6238C65.5257 32.6238 68.4322 31.4259 70.7969 29.0635C73.1616 26.701 74.3608 23.8297 74.3608 20.5309C74.3608 17.2321 73.1616 14.3608 70.7969 11.9979C68.4322 9.63509 65.5253 8.43604 62.1587 8.43604ZM69.1337 27.532C67.2319 29.4803 64.9102 30.4681 62.2332 30.4681C59.5561 30.4681 57.2061 29.4792 55.2539 27.5289C53.3018 25.5787 52.3125 23.2396 52.3125 20.5788C52.3125 17.9181 53.3029 15.5617 55.2562 13.5785C57.2095 11.5953 59.5473 10.5918 62.2078 10.5918C64.8684 10.5918 67.1901 11.5888 69.1088 13.5528C71.0275 15.5169 72.0061 17.8759 72.0061 20.5531C72.0061 23.2304 71.0387 25.5794 69.1337 27.532Z" fill="white"/>
<path d="M99.0225 13.4056C98.1986 12.1195 97.0362 11.0366 95.5519 10.1746C93.5645 9.02042 91.4531 8.43604 89.2753 8.43604C85.9409 8.43604 83.0432 9.63394 80.6624 11.9964C78.2817 14.3588 77.0732 17.2301 77.0732 20.5301C77.0732 23.8301 78.2809 26.701 80.6624 29.0635C83.044 31.4259 85.9421 32.6223 89.2753 32.6223C91.4531 32.6223 93.523 32.0536 95.4283 30.9317C96.9069 30.0628 98.1107 28.9346 99.0225 27.5703V32.0767H101.379V8.9813H99.0225V13.4056ZM99.1223 20.5531C99.1223 23.2312 98.1564 25.5787 96.2519 27.5293C94.3473 29.4799 92.0283 30.4662 89.3521 30.4662C86.6758 30.4662 84.3249 29.4772 82.3736 27.527C80.4222 25.5768 79.4321 23.2396 79.4321 20.5788C79.4321 17.9181 80.4226 15.5617 82.3759 13.5785C84.3292 11.5953 86.6662 10.5918 89.3271 10.5918C91.988 10.5918 94.3093 11.5888 96.2277 13.5528C98.146 15.5169 99.1223 17.8759 99.1223 20.5531Z" fill="white"/>
<path d="M115.55 8.43604C113.933 8.43604 112.449 8.81949 111.136 9.57949C110.248 10.0937 109.51 10.7103 108.932 11.4201V8.9813H106.575V32.0767H108.932V16.8072C108.932 15.1457 109.552 13.7258 110.829 12.4661C112.089 11.2222 113.561 10.5918 115.203 10.5918C116.846 10.5918 118.374 11.2885 119.749 12.6625L120.404 13.3166V10.2137L120.251 10.0987C118.762 8.99511 117.182 8.43604 115.55 8.43604Z" fill="white"/>
<path d="M127.616 28.3441C126.357 27.1021 125.719 25.5065 125.719 23.605V11.1865H132.572V9.03108H125.719V0H123.362V23.605C123.362 26.1511 124.238 28.2727 125.964 29.9116C127.691 31.5505 129.795 32.3741 132.237 32.3741H132.621V30.218H132.237C130.431 30.218 128.878 29.5876 127.616 28.3441Z" fill="white"/>
<path d="M146.441 8.43604C142.765 8.43604 139.994 9.78924 138.185 12.4623V8.9813H135.828V32.0767H138.185V18.6942C138.185 16.5303 139.023 14.62 140.675 13.0156C142.328 11.4112 144.271 10.5933 146.441 10.5933C148.605 10.5933 150.475 11.4047 151.998 13.0049C153.526 14.6104 154.3 16.5246 154.3 18.6942V32.0767H156.656V18.6942C156.656 15.8566 155.667 13.4133 153.716 11.4293C151.764 9.44528 149.316 8.43604 146.441 8.43604Z" fill="white"/>
<path d="M175.526 10.0993C174.04 8.99539 172.459 8.43555 170.827 8.43555C169.211 8.43555 167.727 8.819 166.414 9.579C165.526 10.0932 164.788 10.7098 164.209 11.4196V8.98158H161.853V32.0769H164.209V16.8075C164.209 15.146 164.83 13.726 166.106 12.4664C167.367 11.2225 168.838 10.5921 170.481 10.5921C172.124 10.5921 173.651 11.2888 175.027 12.6627L175.682 13.3169V10.214L175.526 10.0993Z" fill="white"/>
<defs>
<linearGradient id="paint0_linear" x1="17.4014" y1="10.8259" x2="21.9368" y2="10.8259" gradientUnits="userSpaceOnUse">
<stop stop-color="#1E3799"/>
<stop offset="1" stop-color="#4A69BD"/>
</linearGradient>
<linearGradient id="paint1_linear" x1="11.951" y1="21.9459" x2="39.3288" y2="21.9459" gradientUnits="userSpaceOnUse">
<stop stop-color="#BEBEBE"/>
<stop offset="1" stop-color="#F7F7F7"/>
</linearGradient>
</defs>
</svg>
