<svg width="32" height="32" viewBox="0 0 32 32" fill="none" xmlns="http://www.w3.org/2000/svg">
<path d="M26.97 2H4.9964C4.2017 2 3.43956 2.31607 2.87762 2.87868C2.31569 3.44129 2 4.20435 2 5L2 27C2 27.7956 2.31569 28.5587 2.87762 29.1213C3.43956 29.6839 4.2017 30 4.9964 30H26.97C27.7647 30 28.5268 29.6839 29.0888 29.1213C29.6507 28.5587 29.9664 27.7956 29.9664 27V5C29.9664 4.20435 29.6507 3.44129 29.0888 2.87868C28.5268 2.31607 27.7647 2 26.97 2ZM25.9468 21.2106L25.0105 25.2731C24.9629 25.4797 24.8468 25.664 24.6812 25.796C24.5156 25.928 24.3101 25.9999 24.0984 26C14.1104 26 5.9952 17.8931 5.9952 7.875C6.00263 7.66503 6.07717 7.463 6.20786 7.29862C6.33856 7.13425 6.51849 7.01621 6.7212 6.96187L10.7788 6.02437C10.848 6.00972 10.9185 6.00156 10.9892 6C11.1703 6.00915 11.3456 6.06666 11.497 6.16657C11.6483 6.26647 11.7703 6.40512 11.85 6.56812L13.7228 10.9431C13.7687 11.0611 13.7942 11.186 13.7983 11.3125C13.7831 11.59 13.6598 11.8505 13.455 12.0381L11.0897 13.9756C12.5229 17.0168 14.9676 19.4645 18.0051 20.8994L19.9403 18.5312C20.1277 18.3262 20.3879 18.2028 20.6651 18.1875C20.7914 18.1916 20.9162 18.2171 21.034 18.2631L25.4037 20.1381C25.5666 20.2179 25.7052 20.3399 25.805 20.4915C25.9048 20.6431 25.9622 20.8187 25.9712 21C25.9699 21.0708 25.9618 21.1414 25.9468 21.2106Z" fill="#5D5C7B"/>
</svg>
